<svg width="131" height="32" viewBox="0 0 131 32" fill="none" xmlns="http://www.w3.org/2000/svg">
<path fill-rule="evenodd" clip-rule="evenodd" d="M4.70029 20.8783C4.03677 20.6169 3.45953 20.1763 3.03344 19.6058C2.60735 19.0354 2.34931 18.3578 2.28831 17.6493C2.22731 16.9407 2.36577 16.2292 2.68814 15.5947C3.01051 14.9603 3.504 14.428 4.11314 14.0578C4.04457 13.6552 4.01002 13.2476 4.00986 12.8393C4.00986 8.52922 7.80865 5.00897 12.5907 4.7805C13.0531 3.99848 13.7165 3.35364 14.5124 2.91258C15.3082 2.47151 16.2078 2.25019 17.1182 2.27148C17.9433 2.25711 18.76 2.43895 19.5006 2.80195C20.2412 3.16494 20.8843 3.69863 21.3768 4.3588C21.8488 4.29285 22.3249 4.25986 22.8015 4.26008C23.0703 4.26008 23.3363 4.27042 23.5994 4.2911C24.2108 3.83162 24.956 3.58398 25.7217 3.58593C26.5881 3.59967 27.4217 3.91881 28.0746 4.48677C28.7274 5.05474 29.1575 5.83482 29.2884 6.6887C30.7763 8.00153 31.6974 9.83694 31.8592 11.8111C32.794 12.0576 33.621 12.6052 34.2113 13.3687C34.8017 14.1322 35.1224 15.0688 35.1235 16.0327C35.1247 16.9967 34.8062 17.934 34.2176 18.6989C33.629 19.4638 32.8034 20.0133 31.8691 20.262C32.0223 20.6863 32.1003 21.1339 32.0997 21.5849C32.119 22.562 31.7484 23.5067 31.0692 24.2115C30.39 24.9163 29.4579 25.3235 28.4777 25.3435C28.4183 25.3435 28.3594 25.3435 28.3009 25.3435C27.9635 26.0373 27.4383 26.6233 26.7846 27.0355C26.1308 27.4477 25.3746 27.6696 24.6011 27.6762C23.4731 27.6532 22.4004 27.1847 21.6188 26.3735C20.8372 25.5624 20.4107 24.4751 20.4331 23.3506C20.4286 22.2338 20.8498 21.157 21.6116 20.3381C20.4925 20.2097 19.4041 19.8895 18.3943 19.3918C17.6857 19.845 16.9197 20.2022 16.1165 20.4538C16.5281 21.1435 16.7443 21.9317 16.7418 22.7343C16.7642 23.8588 16.3377 24.9461 15.5561 25.7572C14.7745 26.5683 13.7018 27.0369 12.5738 27.0599C11.9392 27.0571 11.3139 26.9077 10.747 26.6233C10.1802 26.339 9.68725 25.9274 9.30694 25.421C8.95196 25.5387 8.58031 25.5987 8.20621 25.5987C7.22604 25.5787 6.29393 25.1716 5.61476 24.4668C4.93559 23.762 4.56494 22.8172 4.58428 21.8401C4.58419 21.5177 4.62411 21.1966 4.70312 20.8839L4.70029 20.8783Z" fill="#3D2829"/>
<path fill-rule="evenodd" clip-rule="evenodd" d="M3.50068 20.1772C3.11029 19.8126 2.79987 19.3714 2.589 18.8813C2.37813 18.3913 2.27137 17.8629 2.27544 17.3297C2.26749 16.6771 2.42792 16.0335 2.74133 15.4605C3.05473 14.8876 3.5106 14.4045 4.06519 14.0577C3.99838 13.6549 3.96479 13.2474 3.96474 12.8391C4.05672 10.6845 4.97483 8.64729 6.52964 7.14777C8.08446 5.64824 10.1574 4.80084 12.3207 4.78038C12.7694 4.01367 13.4126 3.37818 14.1857 2.93777C14.9588 2.49735 15.8346 2.26751 16.725 2.27136C17.5499 2.24312 18.3695 2.41378 19.1141 2.76882C19.8587 3.12386 20.5063 3.65281 21.002 4.31073C20.5109 3.84332 19.9291 3.48088 19.2924 3.24563C18.6557 3.01038 17.9775 2.90729 17.2994 2.94269C16.4132 2.95959 15.5454 3.1982 14.7759 3.63661C14.0063 4.07502 13.3596 4.69916 12.8951 5.45171C10.7318 5.47216 8.65888 6.31957 7.10406 7.81909C5.54924 9.31862 4.63113 11.3558 4.53915 13.5105C4.53916 13.9187 4.57276 14.3263 4.63961 14.729C4.08502 15.0758 3.62915 15.5589 3.31574 16.1319C3.00234 16.7048 2.84191 17.3485 2.84986 18.001C2.84662 18.7746 3.07307 19.5317 3.50068 20.1772ZM21.2029 4.58152C21.6528 4.51664 21.8933 4.26137 22.2598 4.26137C22.6262 4.26137 22.7804 4.27265 23.0365 4.2924C23.6271 3.83468 24.354 3.58651 25.1021 3.58722C25.6753 3.59301 26.2381 3.74063 26.7399 4.01683C27.2417 4.29303 27.6668 4.68916 27.9771 5.16964C27.3938 4.62076 26.6323 4.2988 25.831 4.2623C25.0298 4.22581 24.242 4.47721 23.6109 4.97078C23.3553 4.95009 23.0964 4.93975 22.8342 4.93975C22.3702 4.93957 21.9069 4.97256 21.4477 5.03847C21.3779 4.88239 21.2961 4.73197 21.2029 4.58857V4.58152ZM31.599 11.9704C32.3656 12.2721 33.0233 12.797 33.4864 13.4766C32.9737 12.9869 32.3385 12.6435 31.6471 12.4823C31.6348 12.3103 31.6169 12.1396 31.5933 11.9704H31.599ZM21.3147 26.5774C20.8798 26.1587 20.5348 25.6562 20.3006 25.1005C20.0664 24.5449 19.9478 23.9476 19.9522 23.3449C19.9491 22.4532 20.211 21.5807 20.7049 20.8373C21.0248 20.9099 21.3483 20.9659 21.674 21.0051C21.0019 21.7623 20.6018 22.7209 20.5367 23.7299C20.4717 24.7388 20.7454 25.7407 21.3147 26.5774ZM5.75166 24.6819C5.36126 24.3173 5.05085 23.8761 4.83998 23.386C4.62911 22.8959 4.52235 22.3676 4.52642 21.8344C4.52621 21.6318 4.54135 21.4296 4.5717 21.2293C4.77432 21.3588 4.9901 21.4666 5.21544 21.5509C5.13885 21.8639 5.10038 22.1849 5.10084 22.5071C5.09769 23.2806 5.32412 24.0378 5.75166 24.6833V24.6819Z" fill="white"/>
<path d="M4.38837 21.0417C3.70902 20.7431 3.12827 20.2591 2.71322 19.6454C2.28261 19.0093 2.0371 18.2667 2.00388 17.5C1.97067 16.7332 2.15106 15.9723 2.52505 15.3015C2.83723 14.744 3.27928 14.2695 3.81395 13.918C3.79226 13.7675 3.77481 13.6171 3.7616 13.4667C3.74321 13.2565 3.73472 13.0436 3.73472 12.8334C3.74542 11.7515 3.97972 10.6834 4.423 9.69579C4.86628 8.70817 5.50902 7.82223 6.31111 7.09328C7.98805 5.55142 10.1521 4.64114 12.4302 4.51939C12.8893 3.76096 13.5421 3.13754 14.3218 2.71273C15.137 2.26859 16.0468 2.02486 16.9755 2.0018C17.9042 1.97875 18.825 2.17702 19.6613 2.58015C20.3818 2.92732 21.0115 3.43671 21.5006 4.06808C21.6893 4.04457 21.8779 4.02623 22.0665 4.01307C22.3127 3.99803 22.5584 3.99051 22.8037 3.99051C22.9267 3.99051 23.064 3.99051 23.2154 3.99897L23.5224 4.01448C23.8289 3.79671 24.166 3.62515 24.5227 3.50534C25.1516 3.29435 25.8252 3.25249 26.4755 3.38398C27.1259 3.51547 27.7299 3.81566 28.2267 4.25424C28.9086 4.85136 29.3707 5.65852 29.5396 6.54748C30.2744 7.22758 30.881 8.03339 31.3308 8.92674C31.7518 9.76164 32.0151 10.6666 32.1075 11.5965C33.0304 11.853 33.8451 12.4008 34.4292 13.1578C35.0618 13.9825 35.4045 14.9918 35.4045 16.03C35.4045 17.0681 35.0618 18.0774 34.4292 18.9022C33.8669 19.634 33.0893 20.1724 32.2051 20.4423C32.2446 20.5815 32.2767 20.7228 32.3013 20.8654C32.3428 21.1029 32.3636 21.3436 32.3636 21.5847C32.3694 22.6427 31.9637 23.6618 31.2317 24.4279C30.8768 24.8008 30.4497 25.0979 29.9762 25.3013C29.5027 25.5047 28.9927 25.6101 28.4771 25.6112H28.4629C28.0937 26.2875 27.5582 26.8592 26.9066 27.2726C26.2181 27.709 25.4192 27.9409 24.6033 27.9411C24.0154 27.9398 23.4339 27.8194 22.894 27.5874C22.3541 27.3554 21.8671 27.0166 21.4624 26.5914C20.6256 25.7179 20.1607 24.5554 20.165 23.3476C20.1647 22.759 20.2746 22.1754 20.489 21.627C20.6414 21.2369 20.8461 20.8693 21.0974 20.534C20.6859 20.4649 20.2791 20.3707 19.8792 20.2519C19.3764 20.1028 18.8863 19.9142 18.4135 19.6877C18.091 19.8873 17.757 20.0676 17.4132 20.2279C17.1189 20.3652 16.818 20.4879 16.5105 20.596C16.6511 20.8742 16.7634 21.1657 16.8459 21.4662C16.9584 21.8757 17.0155 22.2983 17.0156 22.7228C17.02 23.9306 16.555 25.0932 15.7182 25.9666C15.3136 26.3919 14.8266 26.7308 14.2867 26.9628C13.7468 27.1948 13.1653 27.3151 12.5773 27.3163C11.9036 27.3195 11.2386 27.1644 10.6362 26.8636C10.0857 26.5861 9.59876 26.1981 9.20583 25.7241C8.87887 25.8158 8.54098 25.8633 8.20131 25.8651C7.68571 25.864 7.17571 25.7585 6.70221 25.5551C6.2287 25.3518 5.80156 25.0546 5.44665 24.6818C4.71465 23.9157 4.30896 22.8965 4.3148 21.8385C4.3151 21.6664 4.32597 21.4945 4.34734 21.3237C4.35866 21.2297 4.37328 21.1357 4.3912 21.0417H4.38837ZM3.16314 19.3493C3.55973 19.9314 4.12916 20.3753 4.79159 20.6186L5.01938 20.7018L4.95996 20.9359C4.88637 21.2273 4.84931 21.5267 4.8496 21.8272C4.84638 22.7481 5.20138 23.6343 5.83997 24.2996C6.20475 24.6838 6.65795 24.9736 7.16037 25.1439C7.66278 25.3142 8.19927 25.3599 8.72338 25.277C8.89223 25.2512 9.05876 25.212 9.22139 25.1599L9.4039 25.0993L9.51992 25.2516C9.88261 25.7256 10.3485 26.1114 10.8824 26.3799C11.4068 26.6431 11.9859 26.7799 12.5731 26.779C13.0885 26.7778 13.5982 26.6723 14.0715 26.4689C14.5447 26.2655 14.9717 25.9684 15.3263 25.5957C16.0661 24.8216 16.4763 23.7919 16.4709 22.7228C16.4738 22.3463 16.4262 21.9712 16.3294 21.6072C16.2305 21.2468 16.0829 20.9014 15.8909 20.5805L15.7154 20.2886L16.0394 20.187C16.4312 20.0642 16.8145 19.9157 17.1868 19.7427C17.5547 19.5711 17.9106 19.3751 18.2522 19.156L18.3795 19.0742L18.521 19.1419C19.0078 19.383 19.5148 19.5812 20.0363 19.7343C20.5636 19.8893 21.1032 19.9992 21.6492 20.0629L22.1783 20.125L21.8161 20.5128C21.4625 20.8911 21.184 21.3328 20.9955 21.8146C20.8067 22.3017 20.7108 22.8197 20.7126 23.342C20.7072 24.4111 21.1174 25.4407 21.8571 26.2149C22.21 26.5868 22.6347 26.8838 23.1056 27.0878C23.5766 27.2919 24.0841 27.3989 24.5976 27.4024C25.3122 27.4028 26.012 27.2003 26.6152 26.8185C27.2328 26.4261 27.7313 25.8731 28.0569 25.2191L28.1347 25.064H28.3087H28.3964H28.4757C28.9188 25.0628 29.3571 24.9719 29.7639 24.7969C30.1708 24.6219 30.5378 24.3663 30.8427 24.0457C31.4813 23.3804 31.8363 22.4942 31.833 21.5734C31.8333 21.3626 31.8153 21.1521 31.7793 20.9444C31.7408 20.742 31.6849 20.5434 31.6123 20.3506L31.509 20.0685L31.8062 20.0008C32.6826 19.7962 33.4603 19.2941 34.0062 18.5806C34.5651 17.8492 34.8678 16.9551 34.8678 16.0356C34.8678 15.1162 34.5651 14.2221 34.0062 13.4906C33.4583 12.7763 32.6779 12.2746 31.7991 12.0718L31.601 12.0295L31.5869 11.8307C31.5199 10.9035 31.2698 9.99856 30.8511 9.16791C30.4143 8.3071 29.822 7.53399 29.1038 6.88737L29.0289 6.8225L29.0133 6.73082C28.8803 5.929 28.4734 5.19762 27.8616 4.66042C27.2691 4.13953 26.5068 3.85129 25.7168 3.84947C25.3667 3.84881 25.0188 3.90502 24.6868 4.01589C24.3525 4.12875 24.0387 4.29447 23.7572 4.5067L23.6752 4.56875L23.5747 4.55465C23.4333 4.54336 23.3073 4.53631 23.1885 4.53067C23.0696 4.52503 22.9437 4.53067 22.798 4.53067C22.5584 4.53067 22.3259 4.53866 22.1005 4.55465C21.8751 4.57063 21.6449 4.59461 21.4101 4.62657L21.2488 4.64914L21.154 4.50811C20.7073 3.89161 20.1136 3.39575 19.4265 3.06531C18.6678 2.70085 17.833 2.52128 16.991 2.54138C16.1491 2.56149 15.3239 2.7807 14.5836 3.18096C13.847 3.58081 13.2384 4.17962 12.8278 4.90865L12.7584 5.03981L12.6071 5.04686C10.4016 5.13024 8.29815 5.99485 6.67472 7.48536C5.92511 8.16535 5.32453 8.9924 4.91064 9.91464C4.49675 10.8369 4.27848 11.8344 4.26952 12.8447C4.26952 13.045 4.27754 13.2415 4.29358 13.4342C4.31055 13.6345 4.33602 13.8305 4.36715 14.0195L4.39827 14.2015L4.25113 14.2861C3.72627 14.5957 3.29322 15.0386 2.99619 15.5695C2.67166 16.1534 2.51513 16.8153 2.54384 17.4822C2.57255 18.1491 2.78538 18.7952 3.15889 19.3493H3.16314Z" fill="#573736"/>
<path d="M8.72574 7.32303C9.04153 7.32249 9.35429 7.38455 9.64578 7.50561C9.93728 7.62667 10.2017 7.80432 10.4237 8.02821C10.8735 8.48359 11.1257 9.09705 11.1257 9.73615C11.1257 10.3752 10.8735 10.9887 10.4237 11.4441C10.2021 11.6687 9.93777 11.8471 9.64626 11.9689C9.35475 12.0907 9.04182 12.1535 8.72574 12.1535C8.40966 12.1535 8.09673 12.0907 7.80522 11.9689C7.51371 11.8471 7.24947 11.6687 7.02785 11.4441C6.57799 10.9887 6.32582 10.3752 6.32582 9.73615C6.32582 9.09705 6.57799 8.48359 7.02785 8.02821C7.24986 7.80439 7.5143 7.62684 7.80578 7.50578C8.09727 7.38472 8.40996 7.32256 8.72574 7.32303ZM9.94541 8.50493C9.78599 8.3437 9.59603 8.21571 9.38653 8.12832C9.17702 8.04093 8.95216 7.99593 8.72505 7.99593C8.49794 7.99593 8.27308 8.04093 8.06357 8.12832C7.85406 8.21571 7.66407 8.3437 7.50464 8.50493C7.1797 8.83573 6.99775 9.28025 6.99775 9.7432C6.99775 10.2062 7.1797 10.6507 7.50464 10.9815C7.66407 11.1427 7.85406 11.2708 8.06357 11.3582C8.27308 11.4456 8.49794 11.4906 8.72505 11.4906C8.95216 11.4906 9.17702 11.4456 9.38653 11.3582C9.59603 11.2708 9.78599 11.1427 9.94541 10.9815C10.2707 10.6509 10.4529 10.2063 10.4529 9.7432C10.4529 9.28014 10.2707 8.83555 9.94541 8.50493Z" fill="#27AB27"/>
<path fill-rule="evenodd" clip-rule="evenodd" d="M18.5807 29.7449C20.7412 29.7386 22.8114 28.8803 24.3392 27.3574C25.8669 25.8345 26.7279 23.7707 26.7343 21.617V18.2505C26.7313 17.182 26.3041 16.1582 25.5462 15.4026C24.7883 14.6471 23.7612 14.2213 22.6893 14.2183H14.4707C13.3988 14.2213 12.3717 14.6471 11.6137 15.4026C10.8558 16.1582 10.4287 17.182 10.4257 18.2505V21.617C10.432 23.7707 11.2931 25.8345 12.8208 27.3574C14.3485 28.8803 16.4188 29.7386 18.5793 29.7449H18.5807Z" fill="#FCE3BF"/>
<path fill-rule="evenodd" clip-rule="evenodd" d="M21.0159 24.1965C21.0779 24.4998 21.0744 24.8129 21.0059 25.1148C20.9235 25.5121 20.7702 25.8913 20.5532 26.2345C20.3695 26.5085 20.1238 26.7355 19.8359 26.8974C19.52 27.091 19.1689 27.2208 18.8029 27.2796C18.3445 27.3442 17.8821 27.3757 17.4192 27.3739C17.0754 27.3739 16.9763 27.374 16.8687 27.2809C16.7901 27.2075 16.7281 27.1181 16.6868 27.0189C16.6456 26.9197 16.626 26.8129 16.6295 26.7056C16.6081 26.3241 16.7314 25.9485 16.9748 25.6533C17.3215 25.3726 17.7409 25.1955 18.1845 25.1427C18.6629 25.0568 19.1328 24.9285 19.5882 24.7591C19.8605 24.6298 20.108 24.4543 20.3197 24.2402C20.3912 24.1776 20.4696 24.1232 20.5532 24.078C20.6155 24.0329 20.7018 23.9369 20.7895 23.9369C20.8772 23.9369 20.965 23.9989 21.0159 24.202V24.1965Z" fill="#EDCB9C"/>
<path fill-rule="evenodd" clip-rule="evenodd" d="M10.5185 22.8271C10.6944 23.9668 11.1106 25.0564 11.7395 26.0242C12.3685 26.9919 13.1961 27.8158 14.1676 28.4417L14.1874 28.4346C14.2822 28.3909 14.2554 28.2768 14.046 28.0539C13.6777 27.7186 13.3308 27.3606 13.0074 26.9821C12.5619 26.4109 12.1822 25.7915 11.8755 25.1358C11.6466 24.6229 11.4527 24.0952 11.2953 23.5562C11.236 23.2778 11.114 23.0164 10.9387 22.7918C10.8298 22.6973 10.7024 22.7156 10.5284 22.8285L10.5185 22.8271Z" fill="white"/>
<path fill-rule="evenodd" clip-rule="evenodd" d="M18.5806 29.7448C20.5373 29.7377 22.4268 29.032 23.9064 27.7556C25.386 26.4792 26.3579 24.7167 26.6458 22.7875C26.5851 22.7326 26.5124 22.6925 26.4335 22.6704C26.3005 22.6535 26.1902 22.8115 25.7756 23.5336C25.2249 24.5498 24.5855 25.5158 23.8653 26.4206C23.1963 27.1948 22.3709 27.8197 21.4431 28.2542C20.7195 28.6145 19.9451 28.8632 19.1466 28.9917C18.3865 29.1073 17.6116 29.0833 16.8601 28.9211C16.0958 28.7484 15.3426 28.5299 14.6047 28.2667C14.1307 28.1045 14.1307 28.1046 14.3019 28.5122L14.3159 28.546C15.5954 29.335 17.0704 29.7525 18.5749 29.7518L18.5806 29.7448Z" fill="#EDCB9C"/>
<path fill-rule="evenodd" clip-rule="evenodd" d="M26.7343 18.5325V18.2505C26.7313 17.182 26.3041 16.1582 25.5462 15.4026C24.7883 14.6471 23.7612 14.2213 22.6893 14.2183H14.4707C13.3988 14.2213 12.3717 14.6471 11.6137 15.4026C10.8558 16.1582 10.4287 17.182 10.4257 18.2505V21.6354C10.4949 21.6729 10.5712 21.6952 10.6497 21.7012C10.7282 21.7071 10.8071 21.6965 10.8811 21.6698C10.9552 21.6432 11.0227 21.6011 11.0793 21.5466C11.1359 21.492 11.1803 21.4261 11.2095 21.3532C11.3073 20.953 11.3126 20.5359 11.2251 20.1333C11.142 19.4607 11.1861 18.7785 11.3552 18.1221C11.5487 17.6677 11.9113 17.3059 12.3668 17.1124C12.7389 16.9093 13.0474 16.7556 13.2582 16.8304C13.7455 17.1766 14.3239 17.3726 14.922 17.3944C16.6856 17.5732 18.461 17.6082 20.2304 17.4989C21.6282 17.3874 21.8532 17.1209 22.1121 16.9347C22.2211 16.8281 22.365 16.7644 22.5174 16.7553C22.6697 16.7462 22.8203 16.7924 22.9412 16.8853C23.2157 17.1166 23.4675 17.6766 24.0504 17.9981C24.7103 18.2759 25.4145 18.4343 26.1301 18.4662C26.3876 18.4902 26.5786 18.5184 26.7343 18.5325Z" fill="#EDCB9C"/>
<path d="M18.5819 29.4757C20.6708 29.4694 22.6723 28.6394 24.1493 27.167C25.6264 25.6946 26.4589 23.6994 26.4653 21.6172V18.2491C26.4651 17.7554 26.3672 17.2665 26.1771 16.8106C25.987 16.3546 25.7085 15.9406 25.3575 15.5922C25.008 15.2422 24.5926 14.9644 24.1352 14.7749C23.6777 14.5854 23.1873 14.4878 22.6919 14.4877H14.4733C13.978 14.4879 13.4875 14.5856 13.0301 14.7751C12.5727 14.9646 12.1573 15.2423 11.8078 15.5922C11.4568 15.9406 11.1783 16.3546 10.9882 16.8106C10.7981 17.2665 10.7001 17.7554 10.6999 18.2491V21.6172C10.7063 23.6994 11.5389 25.6946 13.0159 27.167C14.493 28.6394 16.4945 29.4694 18.5833 29.4757H18.5819ZM24.5242 27.5476C23.3466 28.7187 21.8475 29.5161 20.216 29.8391C18.5845 30.1622 16.8936 29.9964 15.3564 29.3629C13.8192 28.7294 12.5046 27.6565 11.5782 26.2793C10.6519 24.9021 10.1552 23.2823 10.151 21.6242V18.2562C10.1521 17.6914 10.2653 17.1325 10.4838 16.6114C10.7023 16.0903 11.0219 15.6174 11.4243 15.2198C11.8232 14.8187 12.2977 14.5 12.8204 14.2822C13.3432 14.0644 13.9039 13.9516 14.4705 13.9504H22.6891C23.2557 13.9516 23.8165 14.0644 24.3392 14.2822C24.862 14.5 25.3364 14.8186 25.7352 15.2198C26.1376 15.6174 26.4572 16.0903 26.6757 16.6114C26.8942 17.1325 27.0074 17.6914 27.0086 18.2562V21.6242C27.0071 22.7253 26.7878 23.8152 26.3632 24.8316C25.9386 25.848 25.317 26.771 24.534 27.5476H24.5242Z" fill="#573736"/>
<path fill-rule="evenodd" clip-rule="evenodd" d="M16.8714 19.6513C17.0165 19.6633 17.1551 19.7172 17.27 19.8065C17.3849 19.8958 17.4713 20.0165 17.5186 20.154C17.5658 20.2914 17.5718 20.4397 17.536 20.5805C17.5002 20.7213 17.424 20.8487 17.3168 20.9471C17.2096 21.0455 17.076 21.1105 16.9323 21.1344C16.7886 21.1582 16.641 21.1399 16.5076 21.0815C16.3742 21.0231 16.2608 20.9272 16.1812 20.8055C16.1015 20.6838 16.0592 20.5416 16.0592 20.3963C16.0684 20.1903 16.1591 19.9962 16.3112 19.8566C16.4634 19.717 16.6648 19.6432 16.8714 19.6513Z" fill="#573736"/>
<path fill-rule="evenodd" clip-rule="evenodd" d="M20.1707 19.781C20.3158 19.793 20.4544 19.8469 20.5693 19.9362C20.6842 20.0255 20.7706 20.1462 20.8178 20.2837C20.8651 20.4211 20.8711 20.5694 20.8353 20.7102C20.7995 20.8511 20.7233 20.9784 20.6161 21.0768C20.5089 21.1752 20.3753 21.2402 20.2316 21.2641C20.0879 21.2879 19.9403 21.2696 19.8069 21.2112C19.6735 21.1528 19.5601 21.0569 19.4805 20.9352C19.4008 20.8135 19.3585 20.6713 19.3585 20.526C19.3677 20.32 19.4583 20.1259 19.6105 19.9863C19.7627 19.8467 19.964 19.7729 20.1707 19.781Z" fill="#573736"/>
<path fill-rule="evenodd" clip-rule="evenodd" d="M20.1293 20.6029C20.1762 20.6069 20.2208 20.6246 20.2579 20.6536C20.2949 20.6826 20.3228 20.7217 20.338 20.7662C20.3532 20.8107 20.355 20.8586 20.3434 20.9041C20.3317 20.9496 20.3072 20.9907 20.2725 21.0225C20.2379 21.0543 20.1947 21.0755 20.1482 21.0832C20.1018 21.091 20.054 21.085 20.0109 21.0662C19.9677 21.0474 19.9309 21.0166 19.905 20.9773C19.8791 20.9381 19.8654 20.8921 19.8652 20.8451C19.8665 20.8119 19.8743 20.7792 19.8883 20.749C19.9023 20.7188 19.922 20.6917 19.9466 20.6692C19.9711 20.6467 20 20.6292 20.0314 20.6178C20.0627 20.6064 20.096 20.6013 20.1293 20.6029Z" fill="white"/>
<path fill-rule="evenodd" clip-rule="evenodd" d="M19.4479 18.5653L22.7829 18.1081C22.8491 18.0997 22.916 18.1176 22.969 18.1581C23.022 18.1985 23.0567 18.2582 23.0659 18.3241C23.0743 18.3901 23.0563 18.4567 23.0158 18.5095C22.9752 18.5624 22.9155 18.5972 22.8494 18.6063L19.513 19.0636C19.4468 19.072 19.38 19.054 19.327 19.0136C19.274 18.9732 19.2392 18.9136 19.2301 18.8477C19.2216 18.7815 19.2399 18.7145 19.2807 18.6616C19.3215 18.6087 19.3815 18.5741 19.4479 18.5653Z" fill="#573736"/>
<path fill-rule="evenodd" clip-rule="evenodd" d="M17.4885 18.5653L14.1536 18.1081C14.0874 18.0997 14.0206 18.1176 13.9676 18.1581C13.9146 18.1985 13.8798 18.2582 13.8707 18.3241C13.8622 18.3901 13.8801 18.4567 13.9206 18.5095C13.9611 18.5624 14.021 18.5972 14.0871 18.6063L17.422 19.0636C17.4882 19.072 17.555 19.054 17.608 19.0136C17.661 18.9732 17.696 18.9136 17.7051 18.8477C17.7136 18.7817 17.6955 18.715 17.655 18.6622C17.6145 18.6093 17.5546 18.5745 17.4885 18.5653Z" fill="#573736"/>
<path fill-rule="evenodd" clip-rule="evenodd" d="M23.2939 22.4478C23.5984 22.4611 23.8925 22.5632 24.1393 22.7415C24.3862 22.9199 24.5751 23.1665 24.6825 23.4509C24.79 23.7352 24.8114 24.0449 24.7438 24.3413C24.6763 24.6376 24.523 24.9077 24.3029 25.1179C24.0828 25.3282 23.8054 25.4693 23.5054 25.5239C23.2055 25.5784 22.8962 25.544 22.6158 25.4249C22.3353 25.3057 22.0962 25.1071 21.928 24.8536C21.7598 24.6002 21.6699 24.3031 21.6696 23.9992C21.6789 23.5789 21.8552 23.1793 22.1598 22.8884C22.4643 22.5975 22.8721 22.4391 23.2939 22.4478Z" fill="#E51685" fill-opacity="0.2"/>
<path fill-rule="evenodd" clip-rule="evenodd" d="M13.7317 22.4478C14.0363 22.4611 14.3303 22.5632 14.5772 22.7415C14.824 22.9199 15.0129 23.1665 15.1204 23.4509C15.2278 23.7352 15.2491 24.0449 15.1816 24.3413C15.1141 24.6376 14.9608 24.9077 14.7406 25.1179C14.5205 25.3282 14.2433 25.4693 13.9434 25.5239C13.6434 25.5784 13.3341 25.544 13.0536 25.4249C12.7731 25.3057 12.5339 25.1071 12.3657 24.8536C12.1975 24.6002 12.1077 24.3031 12.1074 23.9992C12.1167 23.5789 12.293 23.1793 12.5975 22.8884C12.9021 22.5975 13.31 22.4391 13.7317 22.4478Z" fill="#E51685" fill-opacity="0.2"/>
<path fill-rule="evenodd" clip-rule="evenodd" d="M14.2781 11.9308H22.5046C22.7457 11.9315 22.9767 12.0273 23.1472 12.1972C23.3176 12.3671 23.4136 12.5973 23.4144 12.8376V14.9207C23.4136 15.161 23.3176 15.3912 23.1472 15.5611C22.9767 15.731 22.7457 15.8268 22.5046 15.8276H14.2781C14.037 15.8268 13.8062 15.731 13.6358 15.5611C13.4653 15.3912 13.3691 15.161 13.3684 14.9207V12.8376C13.3691 12.5973 13.4653 12.3671 13.6358 12.1972C13.8062 12.0273 14.037 11.9315 14.2781 11.9308Z" fill="#27AB27"/>
<path fill-rule="evenodd" clip-rule="evenodd" d="M14.3206 11.9308H22.4621C22.7088 11.9262 22.9472 12.0189 23.1256 12.1888C23.3039 12.3586 23.4077 12.5918 23.4144 12.8376V13.0294C23.2982 12.9676 23.1943 12.8855 23.1074 12.7868C22.9999 12.6669 22.883 12.5556 22.7578 12.454C22.6503 12.3778 22.5627 12.3637 21.1548 12.3637C19.747 12.3637 17.0175 12.3764 15.6025 12.3919C14.1876 12.4074 14.0858 12.4244 14.008 12.5076C13.9301 12.5908 13.8749 12.7388 13.8494 13.1789C13.8219 13.7068 13.8314 14.2361 13.8777 14.7628C13.8766 14.9851 13.9548 15.2005 14.0985 15.3706C14.1791 15.4693 14.2485 15.5694 14.2132 15.6611C14.1979 15.6931 14.1756 15.7213 14.1479 15.7435C14.1202 15.7657 14.0878 15.7814 14.0532 15.7894C13.8596 15.7385 13.688 15.6259 13.5644 15.4689C13.4408 15.3118 13.3719 15.1188 13.3684 14.9193V12.8362C13.3754 12.5906 13.4794 12.3578 13.6577 12.1882C13.836 12.0187 14.0742 11.9262 14.3206 11.9308Z" fill="white"/>
<path d="M14.3205 11.6614H22.4621C22.7864 11.6604 23.0986 11.7841 23.3336 12.0069C23.4459 12.1133 23.5355 12.2412 23.597 12.383C23.6586 12.5247 23.6908 12.6774 23.6917 12.8319V14.915C23.6911 15.0708 23.6586 15.2247 23.5964 15.3675C23.5341 15.5103 23.4433 15.639 23.3295 15.7457C23.0939 15.9686 22.7812 16.0923 22.4564 16.0913H14.315C13.9907 16.0921 13.6784 15.9684 13.4433 15.7457C13.3309 15.6393 13.2414 15.5114 13.1799 15.3696C13.1184 15.2279 13.0862 15.0751 13.0854 14.9206V12.8376C13.0863 12.6817 13.1189 12.5278 13.1814 12.3849C13.244 12.2421 13.335 12.1135 13.449 12.0069C13.6841 11.7842 13.9962 11.6605 14.3205 11.6614ZM22.4621 12.1987H14.3205C14.1447 12.1983 13.9754 12.2654 13.848 12.3862C13.7863 12.444 13.737 12.5137 13.7032 12.591C13.6694 12.6684 13.6519 12.7518 13.6514 12.8362V14.9193C13.6517 15.0037 13.669 15.0873 13.7025 15.1648C13.7361 15.2424 13.7851 15.3124 13.8466 15.3706C13.9744 15.4906 14.1435 15.5572 14.3192 15.5567H22.4607C22.6366 15.557 22.8058 15.4898 22.9333 15.3691C22.9951 15.3112 23.0445 15.2413 23.0784 15.1637C23.1122 15.0861 23.1297 15.0024 23.13 14.9178V12.8347C23.1297 12.7505 23.1121 12.6671 23.0785 12.5898C23.045 12.5125 22.996 12.4428 22.9347 12.3849C22.8068 12.2648 22.6377 12.1982 22.4621 12.1987Z" fill="#573736"/>
<path d="M6.36844 15.2141C6.68421 15.2136 6.99693 15.2757 7.28842 15.3968C7.5799 15.5178 7.84436 15.6954 8.06637 15.9193C8.51623 16.3747 8.76838 16.988 8.76838 17.6271C8.76838 18.2662 8.51623 18.8798 8.06637 19.3351C7.84475 19.5598 7.58047 19.7381 7.28896 19.8599C6.99744 19.9817 6.68452 20.0445 6.36844 20.0445C6.05236 20.0445 5.73945 19.9817 5.44794 19.8599C5.15643 19.7381 4.89215 19.5598 4.67052 19.3351C4.22067 18.8798 3.96852 18.2662 3.96852 17.6271C3.96852 16.988 4.22067 16.3747 4.67052 15.9193C4.89254 15.6954 5.15698 15.5178 5.44846 15.3968C5.73995 15.2757 6.05266 15.2136 6.36844 15.2141ZM7.58811 16.3958C7.42869 16.2346 7.23871 16.1067 7.0292 16.0193C6.8197 15.9319 6.59486 15.8869 6.36775 15.8869C6.14064 15.8869 5.91577 15.9319 5.70627 16.0193C5.49676 16.1067 5.30679 16.2346 5.14736 16.3958C4.82209 16.7264 4.63989 17.1711 4.63989 17.6342C4.63989 18.0972 4.82209 18.5419 5.14736 18.8725C5.30679 19.0338 5.49676 19.1617 5.70627 19.2491C5.91577 19.3365 6.14064 19.3815 6.36775 19.3815C6.59486 19.3815 6.8197 19.3365 7.0292 19.2491C7.23871 19.1617 7.42869 19.0338 7.58811 18.8725C7.91338 18.5419 8.09561 18.0972 8.09561 17.6342C8.09561 17.1711 7.91338 16.7264 7.58811 16.3958Z" fill="#27AB27"/>
<path d="M31.1159 13.9828C31.4317 13.9823 31.7444 14.0446 32.0359 14.1656C32.3273 14.2867 32.5918 14.4641 32.8138 14.688C33.2636 15.1434 33.5157 15.7569 33.5157 16.396C33.5157 17.0351 33.2636 17.6485 32.8138 18.1038C32.5922 18.3285 32.3277 18.507 32.0362 18.6288C31.7447 18.7506 31.432 18.8133 31.1159 18.8133C30.7999 18.8133 30.4868 18.7506 30.1953 18.6288C29.9038 18.507 29.6394 18.3285 29.4177 18.1038C28.9679 17.6485 28.7158 17.0351 28.7158 16.396C28.7158 15.7569 28.9679 15.1434 29.4177 14.688C29.6398 14.4642 29.9046 14.2867 30.196 14.1656C30.4875 14.0446 30.8002 13.9824 31.1159 13.9828ZM32.3354 15.1647C32.176 15.0033 31.9863 14.8751 31.7768 14.7876C31.5673 14.7002 31.3424 14.6551 31.1152 14.6551C30.8881 14.6551 30.6629 14.7002 30.4534 14.7876C30.2439 14.8751 30.0541 15.0033 29.8948 15.1647C29.5695 15.4953 29.3873 15.94 29.3873 16.403C29.3873 16.8661 29.5695 17.3106 29.8948 17.6412C30.0541 17.8026 30.2439 17.931 30.4534 18.0184C30.6629 18.1059 30.8881 18.151 31.1152 18.151C31.3424 18.151 31.5673 18.1059 31.7768 18.0184C31.9863 17.931 32.176 17.8026 32.3354 17.6412C32.6606 17.3106 32.8428 16.8661 32.8428 16.403C32.8428 15.94 32.6606 15.4953 32.3354 15.1647Z" fill="#27AB27"/>
<path d="M25.5873 5.15689C25.9031 5.15643 26.2157 5.21854 26.5072 5.3396C26.7987 5.46066 27.0631 5.63825 27.2851 5.86207C27.735 6.31745 27.9873 6.93091 27.9873 7.57C27.9873 8.2091 27.735 8.82255 27.2851 9.27794C27.0635 9.50258 26.7992 9.68099 26.5077 9.80277C26.2162 9.92456 25.9034 9.98729 25.5873 9.98729C25.2712 9.98729 24.9584 9.92456 24.6669 9.80277C24.3753 9.68099 24.1111 9.50258 23.8894 9.27794C23.4396 8.82255 23.1873 8.2091 23.1873 7.57C23.1873 6.93091 23.4396 6.31745 23.8894 5.86207C24.1115 5.63825 24.3759 5.46066 24.6674 5.3396C24.9589 5.21854 25.2715 5.15643 25.5873 5.15689ZM26.8069 6.33879C26.6475 6.17756 26.4576 6.04953 26.2481 5.96214C26.0386 5.87475 25.8137 5.82975 25.5866 5.82975C25.3595 5.82975 25.1346 5.87475 24.9251 5.96214C24.7156 6.04953 24.5256 6.17756 24.3662 6.33879C24.0409 6.66941 23.8587 7.11399 23.8587 7.57706C23.8587 8.04013 24.0409 8.48471 24.3662 8.81534C24.5256 8.97657 24.7156 9.1046 24.9251 9.19199C25.1346 9.27937 25.3595 9.32438 25.5866 9.32438C25.8137 9.32438 26.0386 9.27937 26.2481 9.19199C26.4576 9.1046 26.6475 8.97657 26.8069 8.81534C27.1322 8.48471 27.3145 8.04013 27.3145 7.57706C27.3145 7.11399 27.1322 6.66941 26.8069 6.33879Z" fill="#27AB27"/>
<path fill-rule="evenodd" clip-rule="evenodd" d="M14.6872 10.7446H22.018V15.0702C22.0169 15.4263 21.8745 15.7675 21.6218 16.0193C21.3692 16.2711 21.0269 16.4131 20.6696 16.4142H16.0343C15.677 16.4131 15.3347 16.2711 15.0821 16.0193C14.8294 15.7675 14.687 15.4263 14.6859 15.0702L14.6872 10.7446Z" fill="#3D2829"/>
<path fill-rule="evenodd" clip-rule="evenodd" d="M16.3969 16.4158H16.0361C15.6788 16.4147 15.3365 16.2727 15.0839 16.0208C14.8313 15.769 14.6888 15.4278 14.6877 15.0717V11.6586C14.7528 11.6586 14.8135 11.6586 14.8673 11.6586H15.1164C15.1616 11.6586 15.1617 11.6586 15.1589 11.9689C15.156 12.2792 15.1489 12.8997 15.1447 13.4822C15.1404 14.0647 15.1447 14.6105 15.1447 14.9504C15.1317 15.1669 15.1685 15.3835 15.2523 15.5836C15.3317 15.7705 15.4717 15.9255 15.6499 16.0237C15.8436 16.0827 16.0418 16.1256 16.2427 16.152C16.2726 16.1545 16.3015 16.1641 16.327 16.1801C16.3524 16.1961 16.3737 16.2179 16.3888 16.2438C16.4039 16.2697 16.4126 16.2988 16.414 16.3288C16.4154 16.3587 16.4095 16.3886 16.3969 16.4158Z" fill="white"/>
<path d="M22.2201 11.6613V15.0715C22.2201 15.2744 22.1798 15.4753 22.1017 15.6627C22.0235 15.85 21.9088 16.0201 21.7645 16.1631C21.6209 16.3069 21.4503 16.4211 21.2624 16.499C21.0745 16.5769 20.873 16.6172 20.6695 16.6173H16.0355C15.6227 16.6173 15.2268 16.4538 14.9349 16.1629C14.6431 15.8719 14.4791 15.4774 14.4791 15.0659V11.6613H14.8836V15.0715C14.8848 15.3742 15.0059 15.6641 15.2206 15.8781C15.4353 16.0921 15.7262 16.2128 16.0298 16.2139H20.6638C20.8141 16.2141 20.9629 16.1846 21.1018 16.1272C21.2407 16.0699 21.3669 15.9857 21.4731 15.8797C21.5798 15.7739 21.6644 15.6482 21.7222 15.5098C21.78 15.3713 21.8097 15.2229 21.8098 15.073V11.6613H22.2144H22.2201Z" fill="#573736"/>
<path fill-rule="evenodd" clip-rule="evenodd" d="M9.34735 19.8146C9.83304 19.8098 10.3092 19.9492 10.7153 20.2147C11.1215 20.4802 11.4393 20.8599 11.6285 21.3058C11.8177 21.7517 11.8697 22.2437 11.7779 22.7191C11.6861 23.1945 11.4546 23.632 11.1128 23.9761C10.7711 24.3201 10.3345 24.5551 9.85843 24.6513C9.3824 24.7475 8.88842 24.7005 8.43922 24.5163C7.99002 24.3321 7.60585 24.0191 7.33549 23.6169C7.06513 23.2147 6.92077 22.7415 6.92074 22.2574C6.91773 21.6127 7.17166 20.9933 7.6267 20.5352C8.08174 20.0772 8.70064 19.8179 9.34735 19.8146Z" fill="#3D2829"/>
<path d="M10.1592 19.7413C10.5553 19.8711 10.9146 20.093 11.2077 20.3886C11.4904 20.6728 11.705 21.0171 11.8353 21.3958C11.9656 21.7744 12.0083 22.1775 11.9601 22.5749C11.9119 22.9723 11.7741 23.3536 11.5571 23.6903C11.34 24.0271 11.0493 24.3106 10.7068 24.5195C10.6756 24.4165 10.6346 24.2797 10.5908 24.1161C10.7097 24.0357 10.8206 23.9442 10.9219 23.8425C11.3401 23.4202 11.5746 22.8507 11.5746 22.2573C11.5746 21.6638 11.3401 21.0943 10.9219 20.672C10.7069 20.4549 10.4491 20.2844 10.1649 20.1713C10.162 20.0204 10.1607 19.8767 10.1592 19.7413Z" fill="#573736"/>
<path fill-rule="evenodd" clip-rule="evenodd" d="M27.6588 19.864C28.1445 19.8592 28.6206 19.9984 29.0268 20.2639C29.4329 20.5294 29.751 20.9091 29.9401 21.3551C30.1293 21.801 30.1812 22.2929 30.0894 22.7683C29.9975 23.2437 29.7661 23.6813 29.4244 24.0253C29.0826 24.3693 28.6461 24.6043 28.1701 24.7005C27.6941 24.7967 27.1999 24.7499 26.7507 24.5657C26.3015 24.3816 25.9173 24.0684 25.647 23.6662C25.3766 23.264 25.2325 22.7907 25.2324 22.3066C25.2294 21.662 25.4831 21.0427 25.9382 20.5846C26.3932 20.1266 27.0121 19.8673 27.6588 19.864Z" fill="#3D2829"/>
<path d="M26.4141 24.6352C25.9477 24.383 25.5676 23.9975 25.3229 23.5282C25.0781 23.0589 24.9801 22.5272 25.041 22.0018C25.1019 21.4763 25.3189 20.9811 25.6645 20.5797C26.0101 20.1784 26.4685 19.8893 26.9803 19.7497C27.0031 19.8895 27.0109 20.0314 27.0041 20.1729C26.6597 20.282 26.3446 20.467 26.0818 20.7143C25.6636 21.1367 25.4289 21.7062 25.4289 22.2996C25.4289 22.893 25.6636 23.4626 26.0818 23.8849C26.2346 24.0305 26.4006 24.1613 26.5782 24.2755C26.5612 24.425 26.4467 24.4955 26.4141 24.6352Z" fill="#573736"/>
<path fill-rule="evenodd" clip-rule="evenodd" d="M26.3509 12.6824C26.8367 12.6776 27.3127 12.8168 27.7189 13.0823C28.125 13.3479 28.4431 13.7278 28.6322 14.1738C28.8213 14.6198 28.873 15.1118 28.7811 15.5873C28.6892 16.0627 28.4577 16.5003 28.1158 16.8442C27.7739 17.1882 27.3372 17.4231 26.8611 17.5191C26.385 17.6152 25.8909 17.568 25.4417 17.3836C24.9925 17.1993 24.6085 16.886 24.3384 16.4836C24.0682 16.0812 23.9239 15.6079 23.9242 15.1237C23.9215 14.4793 24.1756 13.8601 24.6306 13.4024C25.0856 12.9446 25.7044 12.6858 26.3509 12.6824Z" fill="#3D2829"/>
<path d="M26.9618 17.6948C26.5242 17.799 26.0672 17.789 25.6346 17.6655C25.202 17.542 24.8087 17.3091 24.4929 16.9896C24.1271 16.6202 23.8773 16.1524 23.7747 15.6435C23.6722 15.1345 23.7213 14.6067 23.9157 14.1252C24.0473 14.1534 24.1817 14.1844 24.3133 14.2211C24.1334 14.6341 24.0814 15.0914 24.1644 15.534C24.2474 15.9766 24.4613 16.3844 24.7786 16.7048C25.05 16.9792 25.3886 17.1777 25.761 17.2809C26.1334 17.3841 26.5265 17.3883 26.901 17.2929C26.918 17.4255 26.9405 17.5482 26.9632 17.692L26.9618 17.6948Z" fill="#573736"/>
<path fill-rule="evenodd" clip-rule="evenodd" d="M10.4299 12.5978C10.8749 12.5936 11.3111 12.7213 11.6832 12.9647C12.0552 13.2081 12.3463 13.5561 12.5195 13.9647C12.6927 14.3733 12.7402 14.824 12.656 15.2596C12.5718 15.6951 12.3596 16.0959 12.0464 16.4111C11.7332 16.7262 11.3332 16.9415 10.897 17.0296C10.4609 17.1176 10.0083 17.0746 9.59677 16.9059C9.18522 16.7371 8.83326 16.4502 8.58558 16.0817C8.33789 15.7132 8.20561 15.2796 8.20559 14.836C8.20296 14.2453 8.43577 13.6776 8.85286 13.2579C9.26995 12.8382 9.83722 12.6008 10.4299 12.5978Z" fill="#3D2829"/>
<path d="M12.7987 14.2818C12.8921 14.6854 12.8816 15.1059 12.7683 15.5044C12.655 15.9028 12.4426 16.2662 12.1507 16.5609C11.9266 16.7877 11.6593 16.9679 11.3646 17.0907C11.07 17.2134 10.7537 17.2764 10.4344 17.2761H10.2929C10.3198 17.1788 10.3424 17.0899 10.3594 17.0265C10.3675 16.9707 10.3921 16.9185 10.4301 16.8768C10.6962 16.8771 10.9597 16.8246 11.2053 16.7224C11.4509 16.6202 11.6736 16.4704 11.8606 16.2817C12.2415 15.8982 12.4547 15.38 12.4535 14.8403C12.454 14.6982 12.4398 14.5565 12.4111 14.4173C12.5129 14.3736 12.6105 14.3439 12.694 14.3171L12.7987 14.2818Z" fill="#573736"/>
<path fill-rule="evenodd" clip-rule="evenodd" d="M16.7948 24.1204H20.7878C20.7855 24.8419 20.4969 25.5331 19.985 26.0431C19.473 26.5531 18.7793 26.8404 18.0555 26.8423H16.7934V24.1204H16.7948Z" fill="white"/>
<path d="M16.795 23.851H20.7894C20.861 23.851 20.9297 23.8793 20.9804 23.9298C21.0311 23.9803 21.0597 24.0491 21.0597 24.1206C21.0598 24.5137 20.9819 24.9027 20.8307 25.2658C20.6794 25.6288 20.4576 25.9587 20.1781 26.2361C19.8999 26.5148 19.5692 26.7357 19.205 26.8865C18.8408 27.0373 18.4501 27.1147 18.0557 27.1145H16.7936C16.722 27.1145 16.6531 27.0861 16.6024 27.0356C16.5518 26.9851 16.5233 26.9166 16.5233 26.8452V24.1233C16.523 24.0876 16.5297 24.0521 16.5432 24.019C16.5567 23.9859 16.5766 23.9558 16.6019 23.9305C16.6272 23.9052 16.6574 23.8849 16.6905 23.8713C16.7237 23.8576 16.7592 23.8508 16.795 23.851ZM20.5035 24.3884H17.0638V26.5732H18.0543C18.3774 26.5733 18.6972 26.5097 18.9957 26.3862C19.2941 26.2628 19.5652 26.082 19.7933 25.8539C20.1912 25.4602 20.4418 24.9425 20.5035 24.3871V24.3884Z" fill="#573736"/>
<path fill-rule="evenodd" clip-rule="evenodd" d="M16.8425 20.4689C16.8894 20.473 16.9342 20.4906 16.9713 20.5196C17.0084 20.5486 17.0361 20.5878 17.0513 20.6323C17.0665 20.6767 17.0684 20.7246 17.0568 20.7701C17.0452 20.8157 17.0204 20.8568 16.9858 20.8886C16.9511 20.9204 16.9079 20.9415 16.8615 20.9493C16.815 20.9571 16.7674 20.9511 16.7243 20.9323C16.6811 20.9135 16.6443 20.8826 16.6184 20.8434C16.5926 20.8041 16.5786 20.7583 16.5784 20.7113C16.5797 20.6781 16.5877 20.6454 16.6017 20.6152C16.6157 20.585 16.6354 20.5578 16.66 20.5353C16.6845 20.5128 16.7133 20.4952 16.7446 20.4839C16.776 20.4725 16.8092 20.4674 16.8425 20.4689Z" fill="white"/>
<path d="M45.2017 22.6071V13.8629C45.8693 13.6086 46.5745 13.4656 47.2887 13.4398C48.7417 13.4398 48.9298 14.4919 48.9298 16.5962V22.6043H52.072V16.5539C52.072 15.6428 51.9787 13.8897 51.9787 13.8897C52.6816 13.6409 53.4159 13.4914 54.1604 13.4455C55.5667 13.4455 55.8014 14.5907 55.8014 16.3677V22.6085H58.9437V16.2732C58.9437 12.5104 58.0057 10.6403 54.8167 10.6403C53.4445 10.7475 52.1066 11.1207 50.8779 11.7389C50.4988 11.3543 50.0402 11.0568 49.5339 10.867C49.0276 10.6773 48.4857 10.5999 47.9464 10.6403C46.9694 10.76 46.0275 11.0782 45.1789 11.5753V10.9209H42.0664V22.6085L45.2017 22.6071ZM70.1196 14.5681C70.1196 11.8334 68.8999 10.6417 65.8509 10.6417C64.2434 10.6885 62.6464 10.916 61.0901 11.32L61.1833 13.4934C61.1833 13.4934 64.0444 13.3058 65.5922 13.3058C66.5302 13.3058 66.9756 13.5625 66.9756 14.5752V15.3L64.4672 15.4877C61.888 15.6752 60.3644 16.4227 60.3644 19.0643C60.3644 21.5423 61.537 22.8977 63.9988 22.8977C65.191 22.8547 66.3629 22.5767 67.4467 22.0796C68.439 22.7236 69.6216 23.0121 70.8 22.8977L70.8933 20.5367C70.2595 20.4196 70.1663 20.139 70.1196 19.4381V14.5653V14.5681ZM66.9773 17.4664V19.9669C66.2286 20.1801 65.4575 20.3055 64.6796 20.3407C63.8307 20.3407 63.5308 19.7765 63.5308 18.9613C63.5308 18.1151 64.0231 17.7231 64.8437 17.6526L66.9773 17.4664ZM75.6669 22.6085V13.8643C76.3345 13.61 77.0397 13.4671 77.7539 13.4412C79.2084 13.4412 79.395 14.4933 79.395 16.5976V22.6057H82.5372V16.5539C82.5372 15.6428 82.444 13.8897 82.444 13.8897C83.1468 13.6409 83.8812 13.4914 84.6256 13.4455C86.0319 13.4455 86.2667 14.5907 86.2667 16.3677V22.6085H89.4092V16.2732C89.4092 12.5104 88.4712 10.6403 85.2822 10.6403C83.9096 10.7474 82.5709 11.1206 81.3417 11.7389C80.9626 11.3543 80.504 11.0568 79.9977 10.867C79.4914 10.6773 78.9496 10.5999 78.4102 10.6403C77.4333 10.76 76.4917 11.0782 75.6431 11.5753V10.9209H72.5302V22.6085H75.6669ZM91.6037 22.6085H94.7459V10.9209H91.6037V22.6085ZM91.6037 9.42453H94.7459V6.24418H91.6037V9.42453ZM100.2 22.6085V18.2604L101.49 18.0503L103.859 22.6085H107.396L104.183 16.4608L107.232 10.9209H103.716L101.394 15.3381L100.199 15.5483V6.23996H97.0564V22.6001H100.199L100.2 22.6085ZM113.11 10.6403C109.03 10.6403 107.717 13.1408 107.717 16.7414C107.717 20.3421 109.03 22.8892 113.11 22.8892C117.191 22.8892 118.504 20.3407 118.504 16.7414C118.504 13.1422 117.188 10.6388 113.107 10.6388L113.11 10.6403ZM113.11 20.2306C111.374 20.2306 110.906 19.0149 110.906 16.7471C110.906 14.4792 111.374 13.3115 113.11 13.3115C114.846 13.3115 115.314 14.4806 115.314 16.7471C115.314 19.0135 114.843 20.2236 113.107 20.2236L113.11 20.2306ZM128.673 11.2538C127.174 10.9441 125.652 10.7489 124.123 10.6699C121.661 10.6699 119.596 11.7686 119.596 14.4778C119.596 17.0489 120.933 17.6568 123.465 18.0771C125.623 18.4282 125.88 18.6609 125.88 19.1757C125.88 19.7836 125.481 20.0868 123.98 20.0868C122.785 20.0868 119.877 19.7131 119.877 19.7131L119.784 22.3307C121.268 22.6342 122.773 22.8228 124.286 22.8948C127.217 22.8948 129 21.8427 129 19.108C129 16.7471 128.038 15.9516 125.321 15.4608C123.164 15.0631 122.718 14.9461 122.718 14.4087C122.718 13.7769 123.001 13.4737 124.359 13.4737C125.718 13.4737 128.627 13.8474 128.627 13.8474L128.673 11.2538Z" fill="#1BAA56"/>
</svg>
